<?xml version="1.0" ?><!DOCTYPE svg  PUBLIC '-//W3C//DTD SVG 1.1//EN'  'http://www.w3.org/Graphics/SVG/1.1/DTD/svg11.dtd'><svg enable-background="new 0 0 128 128" id="Слой_1" version="1.1" viewBox="0 0 128 128" xml:space="preserve" xmlns="http://www.w3.org/2000/svg" xmlns:xlink="http://www.w3.org/1999/xlink"><g><g><g><path d="M100.2,92L64,121L27.3,92c-4.8-3.8-7.6-9.6-7.6-15.7V8h88v68.4C107.7,82.5,104.9,88.2,100.2,92z" fill="#FFFFFF"/></g></g></g><g><g><g><g><path d="M97.7,94l2.5-2c4.7-3.8,7.5-9.5,7.5-15.6V8h-10V94z" fill="#F37865"/></g></g></g><g><g><g><polygon fill="#F37865" points="77.7,110.1 87.7,102 87.7,8 77.7,8     "/></g></g></g><g><g><g><polygon fill="#F37865" points="57.7,116 64,121 64,121 67.7,118.1 67.7,8 57.7,8     "/></g></g></g><g><g><g><polygon fill="#F37865" points="37.7,100.2 47.7,108.1 47.7,8 37.7,8     "/></g></g></g></g><g><g><g><path d="M64,122.9L26.3,93.2c-5.2-4.1-8.2-10.3-8.2-16.9V6.5h91v69.9c0,6.6-2.9,12.7-8.1,16.8L64,122.9z      M21.2,9.5v66.8c0,5.7,2.6,11,7,14.5L64,119.1l35.2-28.3c4.4-3.5,6.9-8.8,6.9-14.4V9.5H21.2z" fill="#FEE444"/></g></g></g><g><g><g><path d="M19.7,8v68.3c0,6.1,2.8,11.9,7.6,15.7l80.4-84H19.7z" fill="#0B85B7"/></g></g></g><g><g><g><polygon fill="#FFFFFF" points="36,23 36,61 74,23    "/></g></g></g><g><g><g><path d="M64,122.9L26.3,93.2c-5.2-4.1-8.2-10.3-8.2-16.9V6.5h91v69.9c0,6.6-2.9,12.7-8.1,16.8L64,122.9z      M21.2,9.5v66.8c0,5.7,2.6,11,7,14.5L64,119.1l35.2-28.3c4.4-3.5,6.9-8.8,6.9-14.4V9.5H21.2z" fill="#F2D143"/></g></g></g><g><g><g><circle cx="29" cy="17.3" fill="#FFFFFF" r="4"/></g></g></g><g><g><g><circle cx="45" cy="32.3" fill="#B9D53C" r="6"/></g></g></g><g><g><g><circle cx="59" cy="17.3" fill="#FFFFFF" r="4"/></g></g></g><g><g><g><circle cx="89" cy="17.3" fill="#FFFFFF" r="4"/></g></g></g><g><g><g><circle cx="69" cy="37.3" fill="#FFFFFF" r="4"/></g></g></g><g><g><g><circle cx="49" cy="57.3" fill="#FFFFFF" r="4"/></g></g></g><g><g><g><circle cx="29" cy="77.3" fill="#FFFFFF" r="4"/></g></g></g><g><g><g><circle cx="29" cy="47.3" fill="#FFFFFF" r="4"/></g></g></g></svg>